<svg version="1.1" xmlns="http://www.w3.org/2000/svg" xmlns:xlink="http://www.w3.org/1999/xlink" width="624.11181640625" height="252"><defs/><g><g><rect fill="#C0C0C0" stroke="none" x="311" y="216" width="104" height="58" transform="matrix(1 0 0 1 -262 -190)" fill-opacity="0.2"/></g><g><rect fill="#ffffff" stroke="none" x="304" y="209" width="104" height="58" transform="matrix(1 0 0 1 -262 -190)"/></g><g><path fill="none" stroke="#000000" paint-order="fill stroke markers" d=" M 42 19 L 146 19 L 146 77 L 42 77 L 42 19 Z Z" stroke-miterlimit="10" stroke-dasharray=""/></g><g><path fill="none" stroke="#000000" paint-order="fill stroke markers" d=" M 42 44 L 146 44" stroke-miterlimit="10" stroke-dasharray=""/></g><g><path fill="none" stroke="#000000" paint-order="fill stroke markers" d=" M 42 67 L 146 67" stroke-miterlimit="10" stroke-dasharray=""/></g><g><g><path fill="none" stroke="none"/><text fill="#000000" stroke="none" font-family="Arial" font-size="13px" font-style="normal" font-weight="bold" text-decoration="undefined" x="356.5" y="222.5" text-anchor="middle" dominant-baseline="central" transform="matrix(1 0 0 1 -262 -190)">Director</text></g></g><g><g><path fill="none" stroke="none"/><text fill="#000000" stroke="none" font-family="Arial" font-size="13px" font-style="normal" font-weight="normal" text-decoration="undefined" x="309" y="245.5" text-anchor="start" dominant-baseline="central" transform="matrix(1 0 0 1 -262 -190)">+Operation</text></g></g><g><rect fill="#C0C0C0" stroke="none" x="575" y="207" width="128" height="75" transform="matrix(1 0 0 1 -262 -190)" fill-opacity="0.2"/></g><g><rect fill="#ffffff" stroke="none" x="568" y="200" width="128" height="75" transform="matrix(1 0 0 1 -262 -190)"/></g><g><path fill="none" stroke="#000000" paint-order="fill stroke markers" d=" M 306 10 L 434 10 L 434 85 L 306 85 L 306 10 Z Z" stroke-miterlimit="10" stroke-dasharray=""/></g><g><path fill="none" stroke="#000000" paint-order="fill stroke markers" d=" M 306 35 L 434 35" stroke-miterlimit="10" stroke-dasharray=""/></g><g><path fill="none" stroke="#000000" paint-order="fill stroke markers" d=" M 306 58 L 434 58" stroke-miterlimit="10" stroke-dasharray=""/></g><g><g><path fill="none" stroke="none"/><text fill="#000000" stroke="none" font-family="Arial" font-size="13px" font-style="normal" font-weight="bold" text-decoration="undefined" x="632.5" y="213.5" text-anchor="middle" dominant-baseline="central" transform="matrix(1 0 0 1 -262 -190)">Builder</text></g></g><g><g><path fill="none" stroke="none"/><text fill="#000000" stroke="none" font-family="Arial" font-size="13px" font-style="normal" font-weight="normal" text-decoration="undefined" x="573" y="236.5" text-anchor="start" dominant-baseline="central" transform="matrix(1 0 0 1 -262 -190)">+BuildPart</text></g></g><g><path fill="none" stroke="#000000" paint-order="fill stroke markers" d=" M 147 48 L 305 47" stroke-miterlimit="10" stroke-dasharray=""/></g><g><path fill="#000000" stroke="none" paint-order="stroke fill markers" d=" M 294.8641706667055 51.2737528855009 L 305 47 L 294.81088669902465 42.85488599193121 L 283.0004406212761 47.139237717586866"/></g><g><path fill="none" stroke="#000000" paint-order="fill stroke markers" d=" M 294.8641706667055 51.2737528855009 L 305 47 L 294.81088669902465 42.85488599193121 L 283.0004406212761 47.139237717586866 L 294.8641706667055 51.2737528855009" stroke-miterlimit="10" stroke-dasharray=""/></g><g><rect fill="#ffffff" stroke="none" x="272" y="344" width="168" height="55" transform="matrix(1 0 0 1 -262 -190)"/></g><g><path fill="none" stroke="#000000" paint-order="fill stroke markers" d=" M 10 154 L 178 154 L 178 209 L 10 209 L 10 154 Z Z" stroke-miterlimit="10" stroke-dasharray=""/></g><g><g><path fill="none" stroke="none"/><text fill="#000000" stroke="none" font-family="Arial" font-size="13px" font-style="normal" font-weight="normal" text-decoration="undefined" x="277" y="349" text-anchor="start" dominant-baseline="text-before-edge" transform="matrix(1 0 0 1 -262 -190)">for all objects in structure{  </text></g></g><g><g><path fill="none" stroke="none"/><text fill="#000000" stroke="none" font-family="Arial" font-size="13px" font-style="normal" font-weight="normal" text-decoration="undefined" x="277" y="364" text-anchor="start" dominant-baseline="text-before-edge" transform="matrix(1 0 0 1 -262 -190)">       build-&gt;BuildPart           </text></g></g><g><g><path fill="none" stroke="none"/><text fill="#000000" stroke="none" font-family="Arial" font-size="13px" font-style="normal" font-weight="normal" text-decoration="undefined" x="277" y="379" text-anchor="start" dominant-baseline="text-before-edge" transform="matrix(1 0 0 1 -262 -190)"> }</text></g></g><g><path fill="none" stroke="#000000" paint-order="fill stroke markers" d=" M 94 153 L 94 78" stroke-miterlimit="10" stroke-dasharray="3"/></g><g><rect fill="#C0C0C0" stroke="none" x="583" y="351" width="134.2490234375" height="88" transform="matrix(1 0 0 1 -262 -190)" fill-opacity="0.2"/></g><g><rect fill="#ffffff" stroke="none" x="576" y="344" width="134.2490234375" height="88" transform="matrix(1 0 0 1 -262 -190)"/></g><g><path fill="none" stroke="#000000" paint-order="fill stroke markers" d=" M 314 154 L 448.2490234375 154 L 448.2490234375 242 L 314 242 L 314 154 Z Z" stroke-miterlimit="10" stroke-dasharray=""/></g><g><path fill="none" stroke="#000000" paint-order="fill stroke markers" d=" M 314 179 L 448.2490234375 179" stroke-miterlimit="10" stroke-dasharray=""/></g><g><path fill="none" stroke="#000000" paint-order="fill stroke markers" d=" M 314 217 L 448.2490234375 217" stroke-miterlimit="10" stroke-dasharray=""/></g><g><g><path fill="none" stroke="none"/><text fill="#000000" stroke="none" font-family="Arial" font-size="13px" font-style="normal" font-weight="bold" text-decoration="undefined" x="643.62451171875" y="357.5" text-anchor="middle" dominant-baseline="central" transform="matrix(1 0 0 1 -262 -190)">ConcreteBuilder</text></g></g><g><g><path fill="none" stroke="none"/><text fill="#000000" stroke="none" font-family="Arial" font-size="13px" font-style="normal" font-weight="normal" text-decoration="undefined" x="581" y="380.5" text-anchor="start" dominant-baseline="central" transform="matrix(1 0 0 1 -262 -190)">+BuildPart</text></g></g><g><g><path fill="none" stroke="none"/><text fill="#000000" stroke="none" font-family="Arial" font-size="13px" font-style="normal" font-weight="normal" text-decoration="undefined" x="581" y="395.5" text-anchor="start" dominant-baseline="central" transform="matrix(1 0 0 1 -262 -190)">+GetResult</text></g></g><g><path fill="none" stroke="#000000" paint-order="fill stroke markers" d=" M 370 85 L 370 154" stroke-miterlimit="10" stroke-dasharray=""/></g><g><path fill="#FFFFFF" stroke="none" paint-order="stroke fill markers" d=" M 365.790482243984 143.83732514237585 L 370 154 L 374.209517756016 143.83732514237585 L 370 132"/></g><g><path fill="none" stroke="#000000" paint-order="fill stroke markers" d=" M 365.790482243984 143.83732514237585 L 370 154 L 374.209517756016 143.83732514237585 L 370 132 L 365.790482243984 143.83732514237585" stroke-miterlimit="10" stroke-dasharray=""/></g><g><rect fill="#C0C0C0" stroke="none" x="823" y="375" width="59.11181640625" height="35" transform="matrix(1 0 0 1 -262 -190)" fill-opacity="0.2"/></g><g><rect fill="#ffffff" stroke="none" x="816" y="368" width="59.11181640625" height="35" transform="matrix(1 0 0 1 -262 -190)"/></g><g><path fill="none" stroke="#000000" paint-order="fill stroke markers" d=" M 554 178 L 613.11181640625 178 L 613.11181640625 213 L 554 213 L 554 178 Z Z" stroke-miterlimit="10" stroke-dasharray=""/></g><g><path fill="none" stroke="#000000" paint-order="fill stroke markers" d=" M 554 203 L 613.11181640625 203" stroke-miterlimit="10" stroke-dasharray=""/></g><g><g><path fill="none" stroke="none"/><text fill="#000000" stroke="none" font-family="Arial" font-size="13px" font-style="normal" font-weight="bold" text-decoration="undefined" x="846.055908203125" y="381.5" text-anchor="middle" dominant-baseline="central" transform="matrix(1 0 0 1 -262 -190)">Product</text></g></g><g><path fill="none" stroke="#000000" paint-order="fill stroke markers" d=" M 449 197 L 553 195" stroke-miterlimit="10" stroke-dasharray=""/></g><g><path fill="#000000" stroke="none" paint-order="stroke fill markers" d=" M 542.9201411138523 199.4041395113403 L 553 195 L 542.7582665144412 190.9866603419618 L 531.0040669193434 195.42299871308956"/></g><g><path fill="none" stroke="#000000" paint-order="fill stroke markers" d=" M 542.9201411138523 199.4041395113403 L 553 195 L 542.7582665144412 190.9866603419618 L 531.0040669193434 195.42299871308956 L 542.9201411138523 199.4041395113403" stroke-miterlimit="10" stroke-dasharray=""/></g></g></svg>